# xmcd
#
# Track frame offsets: 
#        150
#        10782
#        21089
#        30538
#        42136
#        58201
#        75666
#        86732
#        100906
#        109646
#        126058
#        137468
#        150448
#        159487
#        170893
#        187355
#        201046
#        212745
#        224646
#        234583
#        246192
#        255688
#        269688
#        281332
#        289952
#        301422
#        308680
#        320267
#        328874
#        344338
#
# Disc length: 4793 seconds
#
# Revision: 0
# Processed by: cddbd v1.5.2PL0 Copyright (c) Steve Scherf et al.
# Submitted via: ExactAudioCopy v0.95b3
#
DISCID=b912b71e
DTITLE=The Byrds  - The Columbia Singles Collection 1965-1967 (2002) {
DTITLE=24-96 -Sundazed 180gr Vinyl-only} WAV
DYEAR=1900
DGENRE=
TTITLE0=Mr. Tambourine Man
TTITLE1=I Knew Id Want You
TTITLE2=All I Really Want To Do
TTITLE3=Ill Feel A Whole Lot Better
TTITLE4=The Bells Of Rhymney
TTITLE5=Chimes Of Freedom
TTITLE6=She Dont Care About Time (Version 1)
TTITLE7=Its All Over Now, Baby Blue
TTITLE8=The Times They Are A-Changin
TTITLE9=Turn! Turn! Turn! (To Everything There Is A Season)
TTITLE10=She Dont Care About Time (Version 2)
TTITLE11=Set You Free This Time
TTITLE12=It Wont Be Wrong
TTITLE13=He Was A Friend Of Mine
TTITLE14=Eight Miles High
TTITLE15=Why
TTITLE16=5D (Fifth Dimension)
TTITLE17=Captain Soul
TTITLE18=Mr. Spaceman
TTITLE19=Whats Happening
TTITLE20=So You Want To Be A Rock n Roll Star
TTITLE21=Everybodys Been Burned
TTITLE22=My Back Pages
TTITLE23=Renaissance Fair
TTITLE24=Have You Seen Her Face
TTITLE25=Don_t Make Waves
TTITLE26=Lady Friend
TTITLE27=Old John Robertson
TTITLE28=Goin Back
TTITLE29=Change Is Now
EXTD=
EXTT0=
EXTT1=
EXTT2=
EXTT3=
EXTT4=
EXTT5=
EXTT6=
EXTT7=
EXTT8=
EXTT9=
EXTT10=
EXTT11=
EXTT12=
EXTT13=
EXTT14=
EXTT15=
EXTT16=
EXTT17=
EXTT18=
EXTT19=
EXTT20=
EXTT21=
EXTT22=
EXTT23=
EXTT24=
EXTT25=
EXTT26=
EXTT27=
EXTT28=
EXTT29=
PLAYORDER=
